<?xml version="1.0" encoding="utf-8" ?>
<svg xmlns="http://www.w3.org/2000/svg" xmlns:xlink="http://www.w3.org/1999/xlink" width="2208" height="2052">
	<g>
		<path fill="#F9F9FA" d="M1604.79 123.893L1607.83 124.315C1612.21 128.707 1614.32 135.73 1616.41 141.311C1626.87 169.255 1635.28 198.063 1644.77 226.316L1690.38 359.632L1730.96 481.661C1738.77 505.44 1747.24 529.214 1753.74 553.324C1741.51 567 1726.05 579.381 1712.19 591.727L1618.58 673.597L1299.39 956.428L606.442 1571.26Q376.207 1773.52 149.139 1978.84C121.974 2002.28 95.5876 2026.49 68.4706 2049.97C75.9251 2034.2 87.9591 2019.61 98.6763 2005.63C116.827 1981.95 135.857 1958.89 154.418 1935.49L351.502 1689.77L1045.51 819.981L1431.77 334.705L1540.08 199.538C1560.44 174.34 1580.53 145.874 1604.79 123.893Z"/>
		<path fill="#FA069F" d="M1798.35 693.117C1800.76 692.807 1801.72 693.148 1803.88 694.155C1811.43 703.411 1844.99 816.614 1852.4 838.069L2041.06 1390.55L2093.38 1543.83C2101.81 1569.06 2112.11 1595.09 2117.57 1620.99L1417.46 1621.22Q1347.49 1621.5 1277.52 1620.72C1301.65 1601.05 1346.64 1589.22 1376.53 1576.59C1488.07 1529.43 1601.02 1485.13 1713.28 1439.49C1744.66 1426.72 1776.24 1414.5 1807.43 1401.32C1804.96 1389.74 1799.19 1377.83 1795.22 1366.57Q1783.02 1331.77 1771.69 1296.71Q1719.92 1138.67 1665.83 981.31C1655.2 950.789 1643.55 920.686 1633.61 889.944C1629.32 876.682 1624.61 863.345 1621.96 849.702C1627.6 840.573 1658.22 817.27 1668.28 808.297L1751.69 733.091C1766.46 719.806 1781.5 704.107 1798.35 693.117Z"/>
	</g>
	<g/>
</svg>
